<svg width="512" height="512" viewBox="0 0 512 512" fill="none" xmlns="http://www.w3.org/2000/svg">
<path fill-rule="evenodd" clip-rule="evenodd" d="M61.3968 51.3204C47.6895 51.3204 36.5337 62.4668 36.5337 76.1735L36.5346 328.498C36.5346 342.204 47.6892 353.361 61.3959 353.361L450.604 353.36C464.312 353.36 475.466 342.205 475.466 328.498L475.467 76.1738C475.467 62.4671 464.31 51.3207 450.604 51.3207L61.3968 51.3204ZM450.604 363.894H61.3968C41.8838 363.894 26 348.021 26 328.498L26.0009 76.1739C26.0009 56.6609 41.8829 40.7871 61.3959 40.7871H450.604C470.117 40.7871 486 56.6612 486 76.1739L486 328.498C486 348.021 470.117 363.894 450.604 363.894Z" fill="black"/>
<path fill-rule="evenodd" clip-rule="evenodd" d="M61.6162 328.278H450.386V76.401H61.6162V328.278ZM450.605 338.811H61.3972C55.7096 338.811 51.082 334.185 51.082 328.497L51.0826 76.1726C51.0826 70.485 55.709 65.8675 61.3963 65.8675L450.605 65.8672C456.292 65.8672 460.918 70.4853 460.918 76.1726L460.919 328.497C460.919 334.185 456.292 338.811 450.605 338.811Z" fill="black"/>
<path fill-rule="evenodd" clip-rule="evenodd" d="M283.61 447.36H228.39C225.483 447.36 223.123 445.001 223.123 442.093L223.123 358.628C223.123 355.72 225.482 353.362 228.39 353.362C231.298 353.361 233.657 355.72 233.657 358.628L233.657 436.826H278.343V358.628C278.343 355.72 280.702 353.361 283.61 353.361C286.518 353.361 288.877 355.72 288.877 358.628V442.093C288.877 445 286.518 447.36 283.61 447.36Z" fill="black"/>
<path fill-rule="evenodd" clip-rule="evenodd" d="M148.191 471.216C146.682 471.216 145.21 470.558 144.185 469.369L123.429 445.065C122.277 443.711 121.884 441.874 122.387 440.164C122.88 438.453 124.216 437.119 125.916 436.607L226.865 406.121C229.653 405.289 232.588 406.862 233.429 409.642C234.271 412.43 232.698 415.365 229.909 416.207L136.679 444.361L149.973 459.923L226.892 437.045C229.681 436.213 232.606 437.805 233.438 440.594C234.271 443.382 232.679 446.318 229.89 447.141L149.699 470.997C149.196 471.143 148.694 471.216 148.191 471.216Z" fill="black"/>
<path fill-rule="evenodd" clip-rule="evenodd" d="M363.802 471.216C363.308 471.216 362.796 471.143 362.302 470.997L282.111 447.14C279.322 446.317 277.73 443.382 278.563 440.593C279.396 437.804 282.321 436.214 285.11 437.046L362.029 459.923L375.324 444.36L282.094 416.206C279.305 415.365 277.731 412.43 278.572 409.641C279.414 406.861 282.349 405.289 285.129 406.121L386.086 436.606C387.788 437.119 389.122 438.454 389.615 440.164C390.119 441.873 389.725 443.711 388.573 445.064L367.807 469.369C366.793 470.557 365.319 471.216 363.802 471.216Z" fill="black"/>
<path fill-rule="evenodd" clip-rule="evenodd" d="M118.701 247.575C99.2067 247.575 83.3418 231.71 83.3418 212.215L83.3424 162.372C83.3424 159.464 85.701 157.105 88.6086 157.105C91.5174 157.105 93.8755 159.464 93.8755 162.373L93.876 212.215C93.876 225.904 105.013 237.041 118.701 237.041C122.734 237.041 126.592 236.09 130.158 234.216C138.398 229.881 143.518 221.451 143.518 212.215L143.518 162.372C143.518 159.464 145.877 157.105 148.784 157.105C151.692 157.105 154.052 159.464 154.052 162.373L154.052 212.215C154.052 225.383 146.773 237.379 135.059 243.533C130.041 246.175 124.379 247.575 118.701 247.575Z" fill="black"/>
<path fill-rule="evenodd" clip-rule="evenodd" d="M220.198 247.575C218.424 247.575 216.686 246.68 215.699 245.052L167.017 165.116C165.5 162.629 166.285 159.383 168.772 157.874C171.26 156.365 174.496 157.152 176.014 159.63L224.696 239.565C226.205 242.053 225.418 245.29 222.931 246.807C222.081 247.328 221.13 247.576 220.198 247.575Z" fill="black"/>
<path fill-rule="evenodd" clip-rule="evenodd" d="M171.508 247.575C170.575 247.575 169.632 247.329 168.773 246.807C166.286 245.289 165.499 242.053 167.017 239.565L215.7 159.63C217.208 157.152 220.454 156.366 222.932 157.874C225.419 159.383 226.205 162.629 224.697 165.116L176.015 245.051C175.018 246.679 173.281 247.575 171.508 247.575Z" fill="black"/>
<path fill-rule="evenodd" clip-rule="evenodd" d="M403.322 247.612C400.414 247.612 398.055 245.253 398.055 242.345L398.055 162.337C398.055 159.429 400.414 157.07 403.322 157.07C406.229 157.07 408.588 159.429 408.588 162.337L408.589 242.346C408.589 245.254 406.229 247.612 403.322 247.612Z" fill="black"/>
<path fill-rule="evenodd" clip-rule="evenodd" d="M423.392 167.602H383.26C380.352 167.602 377.992 165.243 377.992 162.335C377.993 159.428 380.351 157.069 383.259 157.069L423.392 157.068C426.299 157.068 428.658 159.428 428.658 162.335C428.659 165.243 426.299 167.602 423.392 167.602Z" fill="black"/>
<path fill-rule="evenodd" clip-rule="evenodd" d="M423.392 247.612H383.26C380.352 247.612 377.992 245.253 377.992 242.345C377.993 239.437 380.351 237.078 383.259 237.078L423.392 237.078C426.299 237.078 428.658 239.438 428.658 242.345C428.659 245.253 426.299 247.612 423.392 247.612Z" fill="black"/>
<path fill-rule="evenodd" clip-rule="evenodd" d="M328.159 247.575C308.665 247.575 292.809 231.71 292.809 212.215L292.809 162.372C292.809 159.464 295.168 157.105 298.075 157.105C300.983 157.105 303.342 159.464 303.342 162.373L303.343 212.215C303.343 225.904 314.471 237.041 328.159 237.041C332.201 237.041 336.05 236.09 339.625 234.216C347.865 229.881 352.984 221.451 352.984 212.215L352.985 162.372C352.985 159.464 355.344 157.105 358.251 157.105C361.159 157.105 363.518 159.464 363.518 162.373V212.215C363.518 225.383 356.239 237.379 344.526 243.533C339.497 246.175 333.837 247.575 328.159 247.575Z" fill="black"/>
<path fill-rule="evenodd" clip-rule="evenodd" d="M238.322 273.588C237.874 273.588 237.416 273.525 236.959 273.406C234.152 272.647 232.479 269.766 233.238 266.95L268.588 134.995C269.347 132.187 272.236 130.524 275.043 131.274C277.851 132.023 279.524 134.913 278.765 137.72L243.415 269.674C242.784 272.034 240.653 273.588 238.322 273.588Z" fill="black"/>
</svg>
